<svg width="1200" height="675" viewBox="0 0 1200 675" fill="none" xmlns="http://www.w3.org/2000/svg">
  <rect width="1200" height="675" rx="32" fill="#0D0F12"/>
  <rect x="48" y="48" width="1104" height="579" rx="24" fill="#11151B" stroke="#1F2833" stroke-width="2" stroke-dasharray="6 8"/>
  <text x="96" y="96" fill="#DCE7F5" font-family="'Segoe UI','Inter',Arial" font-size="20" font-weight="700">Rate Limiting Simulator — Algorithms</text>

  <rect x="96" y="140" width="1008" height="320" rx="20" fill="#121820" stroke="#1F2833" stroke-width="2"/>
  <text x="124" y="180" fill="#7BD7FF" font-family="'Segoe UI','Inter',Arial" font-size="15" font-weight="700" letter-spacing="0.14em">TRAFFIC VS LIMIT</text>
  <line x1="160" y1="420" x2="1040" y2="420" stroke="#1F2833" stroke-width="4" stroke-linecap="round"/>
  <line x1="160" y1="220" x2="160" y2="420" stroke="#1F2833" stroke-width="4" stroke-linecap="round"/>

  <polyline points="160,380 300,350 440,310 580,270 720,230 860,210 1000,205" stroke="#7BD7FF" stroke-width="7" fill="none" stroke-linecap="round" stroke-linejoin="round"/>
  <polyline points="160,400 300,392 440,384 580,372 720,360 860,352 1000,352" stroke="#8EE0B3" stroke-width="7" fill="none" stroke-linecap="round" stroke-linejoin="round"/>
  <polyline points="160,420 300,430 440,445 580,465 720,482 860,500 1000,512" stroke="#E89B4A" stroke-width="7" fill="none" stroke-linecap="round" stroke-linejoin="round"/>

  <rect x="640" y="170" width="448" height="60" rx="14" fill="#0F1821" stroke="#233041" stroke-width="2"/>
  <text x="664" y="206" fill="#DCE7F5" font-family="'Segoe UI','Inter',Arial" font-size="14" font-weight="700">Token Bucket</text>
  <text x="820" y="206" fill="#9FB6CF" font-family="'Segoe UI','Inter',Arial" font-size="14">Sliding Window</text>
  <text x="978" y="206" fill="#9FB6CF" font-family="'Segoe UI','Inter',Arial" font-size="14">Fixed Window</text>

  <rect x="96" y="486" width="1008" height="108" rx="16" fill="#0F1821" stroke="#1F2833" stroke-width="2"/>
  <text x="120" y="522" fill="#7BD7FF" font-family="'Segoe UI','Inter',Arial" font-size="14" font-weight="700" letter-spacing="0.14em">OUTCOME</text>
  <text x="120" y="548" fill="#DCE7F5" font-family="'Segoe UI','Inter',Arial" font-size="14">Compare burst handling, sustained throughput, and edge cases across algorithms.</text>
</svg>
